<!DOCTYPE svg PUBLIC "-//W3C//DTD SVG 20010904//EN" "http://www.w3.org/TR/2001/REC-SVG-20010904/DTD/svg10.dtd">
<svg version="1.0" xmlns="http://www.w3.org/2000/svg" width="1600px" height="1600px" viewBox="0 0 16000 16000" preserveAspectRatio="xMidYMid meet">
<g id="layer101" fill="#ba285d" stroke="none">
 <path d="M7540 12669 c-201 -28 -581 -72 -680 -79 -227 -18 -485 -60 -575 -95 -42 -17 -88 -25 -155 -28 -82 -4 -107 -10 -180 -42 -108 -47 -196 -75 -237 -75 -18 0 -106 -24 -195 -53 -90 -29 -190 -61 -223 -71 -33 -10 -107 -38 -165 -61 -58 -24 -116 -46 -131 -49 -14 -3 -62 -30 -108 -61 -45 -30 -93 -55 -107 -55 -14 0 -78 -27 -143 -60 -65 -33 -124 -60 -130 -60 -12 0 -190 -96 -206 -111 -5 -5 -16 -9 -25 -9 -8 0 -46 -21 -85 -45 -38 -25 -84 -51 -100 -59 -17 -8 -53 -30 -80 -48 -28 -19 -88 -54 -134 -78 -46 -24 -97 -54 -112 -68 -16 -13 -46 -33 -67 -45 -58 -33 -264 -182 -292 -211 -13 -15 -28 -26 -34 -26 -6 0 -40 -25 -74 -55 -35 -31 -77 -62 -93 -70 -16 -9 -29 -19 -29 -24 0 -5 -26 -28 -57 -52 -32 -24 -60 -46 -63 -49 -3 -3 -36 -32 -75 -65 -303 -259 -668 -629 -883 -894 -29 -36 -61 -73 -70 -81 -9 -8 -29 -33 -44 -55 -14 -22 -45 -60 -67 -84 -23 -24 -41 -49 -41 -56 0 -7 -10 -23 -23 -36 -30 -32 -87 -105 -87 -113 0 -6 -85 -120 -107 -144 -7 -7 -13 -19 -13 -25 0 -7 -27 -48 -60 -92 -33 -44 -60 -84 -60 -88 0 -4 -27 -49 -60 -99 -33 -51 -60 -98 -60 -104 0 -7 -11 -25 -24 -41 -13 -15 -45 -71 -73 -123 -27 -52 -61 -113 -74 -135 -14 -22 -69 -130 -123 -240 -54 -110 -115 -234 -136 -275 -20 -41 -39 -86 -42 -100 -3 -14 -31 -82 -62 -152 -31 -70 -56 -132 -56 -139 0 -7 -23 -74 -50 -149 -28 -75 -54 -157 -59 -181 -5 -24 -29 -114 -53 -199 -25 -85 -50 -177 -56 -205 -42 -196 -79 -352 -100 -420 -13 -44 -30 -132 -37 -195 -7 -63 -20 -176 -29 -250 -22 -187 -53 -533 -66 -730 -6 -91 -12 -183 -14 -206 l-3 -41 261 -6 c144 -4 646 -10 1116 -13 l856 -7 52 159 c63 194 68 217 77 324 9 115 20 164 64 278 22 54 41 125 45 162 9 85 30 156 73 249 39 86 93 247 93 280 0 12 16 38 35 58 25 25 35 45 35 67 0 36 27 111 71 199 17 33 37 77 44 96 7 20 52 110 100 201 48 91 106 199 127 240 48 89 78 141 94 157 6 6 17 26 24 45 8 18 39 69 70 113 31 44 59 87 62 95 3 8 29 46 57 84 28 38 51 74 51 81 0 7 10 23 23 36 13 13 49 61 80 105 31 45 71 97 89 115 17 19 41 53 52 76 20 39 69 102 141 178 231 244 323 341 340 354 11 9 71 67 133 129 63 61 117 112 121 112 3 0 29 22 56 49 91 91 191 181 201 181 5 0 38 27 74 60 36 33 70 60 77 60 6 0 18 9 25 19 8 11 63 56 124 99 60 44 118 89 128 101 11 11 25 21 31 21 7 0 43 23 81 51 38 28 76 54 84 57 8 3 43 26 78 51 61 44 80 56 147 89 17 9 32 18 35 22 7 8 110 68 180 105 30 15 66 36 80 46 14 9 65 36 115 58 49 23 92 46 95 50 3 5 43 25 90 44 47 20 126 56 177 81 50 25 96 46 101 46 6 0 46 15 89 34 83 35 544 191 648 219 33 8 121 34 195 56 178 52 419 108 500 115 36 3 112 15 170 25 294 55 474 70 915 78 622 10 939 -22 1672 -172 33 -7 135 -36 225 -64 89 -29 249 -80 353 -113 185 -59 274 -92 403 -150 34 -15 69 -28 76 -28 27 0 335 -136 414 -183 31 -19 80 -46 109 -60 28 -14 79 -44 114 -67 34 -22 67 -40 73 -40 11 -1 118 -68 144 -90 7 -6 29 -18 50 -27 20 -8 74 -39 118 -69 45 -30 84 -54 88 -54 7 0 44 -25 166 -111 25 -18 49 -37 55 -44 5 -7 58 -45 118 -85 59 -39 110 -77 115 -84 4 -6 22 -21 40 -32 18 -11 54 -39 80 -62 26 -23 81 -71 122 -107 41 -36 86 -75 99 -87 14 -13 45 -40 70 -61 25 -21 64 -54 86 -75 22 -20 54 -48 70 -62 17 -14 57 -48 90 -76 78 -67 145 -102 145 -75 0 5 -16 38 -36 73 -20 34 -50 88 -66 118 -17 30 -38 64 -47 75 -10 11 -41 58 -69 105 -28 47 -64 103 -81 124 -17 21 -31 44 -31 51 0 6 -15 29 -33 51 -18 21 -54 68 -79 104 -26 36 -57 75 -69 85 -12 11 -49 54 -82 95 -34 41 -67 79 -74 83 -7 4 -13 13 -13 19 0 13 -59 89 -82 106 -10 7 -25 27 -34 44 -9 17 -30 45 -47 63 -18 18 -65 68 -104 113 -40 44 -101 109 -135 145 -35 36 -70 73 -78 81 -27 30 -254 242 -330 310 -41 37 -93 84 -115 104 -21 20 -57 51 -80 67 -22 17 -60 50 -85 73 -25 23 -48 42 -52 42 -3 0 -30 20 -60 45 -29 25 -82 66 -118 90 -36 25 -81 58 -100 75 -19 16 -40 30 -46 30 -6 0 -28 15 -50 33 -55 45 -111 87 -119 87 -4 0 -39 26 -79 59 -39 32 -92 66 -116 74 -43 15 -153 76 -174 97 -6 6 -16 10 -24 10 -7 0 -39 18 -71 39 -31 21 -79 50 -106 63 -28 13 -81 42 -120 65 -110 64 -355 183 -376 183 -33 0 -92 29 -125 61 -41 39 -386 179 -443 179 -10 0 -86 23 -170 51 -84 27 -182 58 -219 68 -37 10 -137 39 -222 64 -85 25 -173 47 -195 50 -22 2 -101 18 -175 35 -184 43 -352 70 -495 82 -66 5 -174 16 -240 24 -448 55 -946 79 -1125 55z"/>
 <path d="M9720 10274 c-19 -2 -116 -11 -215 -20 -217 -19 -381 -43 -615 -91 -96 -20 -197 -39 -225 -44 -138 -22 -474 -123 -628 -189 -64 -27 -121 -50 -126 -50 -22 0 -550 -258 -628 -307 -29 -19 -63 -37 -75 -42 -13 -5 -60 -34 -106 -65 -46 -31 -89 -56 -95 -56 -17 0 -263 -168 -295 -201 -15 -16 -32 -29 -38 -29 -7 0 -71 -54 -142 -120 -72 -66 -133 -120 -137 -120 -7 0 -236 -237 -328 -340 -42 -47 -91 -100 -109 -119 -18 -18 -47 -54 -65 -78 -18 -25 -38 -50 -46 -57 -31 -25 -317 -431 -317 -449 0 -4 -27 -49 -60 -100 -33 -52 -60 -101 -60 -110 0 -9 -5 -19 -10 -22 -6 -4 -24 -32 -40 -63 -17 -31 -34 -64 -39 -72 -22 -37 -141 -280 -141 -289 0 -5 -25 -61 -55 -124 -30 -64 -59 -133 -64 -154 -5 -21 -34 -110 -65 -198 -31 -88 -56 -170 -56 -183 0 -13 -13 -73 -29 -135 -42 -160 -69 -283 -81 -363 -72 -480 -90 -644 -97 -890 -9 -291 14 -417 85 -469 24 -18 42 -20 187 -19 149 1 165 3 230 28 94 36 245 74 341 86 43 5 124 20 179 34 141 34 351 80 480 106 61 12 135 28 165 35 30 7 109 24 175 39 66 14 230 53 365 86 378 91 535 127 660 150 63 11 207 44 320 72 113 28 228 55 255 60 28 6 131 31 230 56 99 24 214 52 255 60 41 8 145 29 230 47 151 32 349 73 460 94 30 6 132 31 225 56 94 25 195 50 225 55 30 5 156 33 280 64 124 30 234 55 245 54 11 -1 76 13 145 30 242 60 338 82 355 82 10 0 119 25 244 56 124 31 251 60 281 64 30 4 172 32 315 63 143 31 277 59 297 62 21 3 43 11 51 18 27 25 59 38 78 32 11 -4 27 -1 35 6 9 7 33 12 55 11 26 -2 39 1 39 10 0 9 3 9 10 -2 8 -13 10 -12 10 2 0 10 3 17 8 16 4 -1 41 3 82 8 41 5 81 8 88 7 6 0 12 4 12 9 0 6 7 8 15 4 8 -3 15 -1 15 4 0 5 7 7 15 4 8 -4 15 -2 15 3 0 5 23 8 52 7 34 -2 79 5 132 21 101 30 234 61 306 69 88 11 379 72 471 99 46 14 120 36 164 50 80 24 308 76 420 96 33 5 130 26 215 46 85 20 183 42 218 49 37 8 73 23 87 36 29 27 46 99 38 160 -8 63 -354 759 -438 882 -19 27 -35 56 -35 62 0 7 -12 23 -26 37 -14 13 -64 75 -111 137 -47 61 -89 112 -94 112 -5 0 -9 6 -9 13 0 36 -426 491 -690 736 -36 33 -96 89 -135 125 -38 36 -74 66 -79 66 -4 0 -28 20 -53 45 -25 24 -59 50 -74 57 -16 7 -29 16 -29 20 0 8 -136 93 -170 106 -14 5 -61 34 -105 63 -44 30 -93 60 -109 67 -16 7 -52 28 -80 47 -28 18 -64 39 -81 46 -16 8 -74 40 -127 71 -53 32 -100 58 -104 58 -4 0 -49 20 -100 45 -50 25 -136 60 -190 79 -55 18 -148 51 -209 73 -178 66 -446 152 -495 159 -25 4 -115 24 -200 45 -319 78 -557 109 -880 114 -118 2 -231 1 -250 -1z"/>
 <path d="M12582 6318 c-5 -5 -41 -18 -80 -28 -39 -10 -80 -24 -91 -29 -11 -6 -29 -11 -41 -11 -24 0 -80 -27 -80 -38 0 -10 108 -78 145 -92 16 -6 32 -14 35 -18 3 -4 30 -25 60 -47 30 -22 57 -43 58 -47 2 -5 8 -8 14 -8 10 0 97 -65 108 -82 3 -4 26 -22 51 -40 51 -38 68 -54 249 -232 74 -73 151 -153 171 -177 20 -24 55 -64 78 -88 23 -24 41 -50 41 -56 0 -7 7 -18 16 -25 8 -8 21 -28 29 -46 11 -28 126 -179 148 -195 5 -3 32 -53 62 -110 48 -94 63 -124 113 -224 8 -16 34 -67 58 -113 24 -46 44 -89 44 -96 0 -8 12 -40 26 -72 38 -86 75 -202 84 -264 4 -30 18 -107 30 -170 29 -155 31 -266 6 -305 -41 -62 -34 -60 -235 -58 -209 2 -313 18 -496 76 -60 19 -137 42 -170 52 -33 9 -64 21 -70 25 -5 4 -28 13 -50 20 -22 7 -64 23 -93 36 -29 13 -58 24 -65 24 -18 0 -109 44 -178 86 -31 19 -62 34 -68 34 -6 0 -53 27 -103 60 -51 33 -97 60 -103 60 -6 0 -20 8 -31 18 -10 10 -61 47 -113 83 -52 35 -106 75 -121 89 -15 14 -46 38 -69 54 -23 16 -56 47 -72 68 -17 21 -36 38 -42 38 -7 0 -32 16 -56 35 -24 19 -50 35 -57 35 -24 0 -16 -56 16 -110 17 -28 30 -54 30 -58 0 -4 25 -40 55 -80 30 -40 55 -77 55 -81 0 -4 24 -34 53 -67 29 -32 65 -78 81 -101 16 -24 32 -43 36 -43 4 0 26 -24 49 -54 23 -30 63 -76 89 -103 216 -225 292 -298 334 -323 14 -8 47 -33 72 -54 25 -21 60 -48 79 -60 66 -41 252 -165 272 -182 11 -9 40 -25 65 -37 25 -11 47 -23 50 -27 6 -8 92 -59 178 -106 31 -17 89 -49 129 -72 40 -23 77 -42 82 -42 6 0 63 -27 127 -60 64 -33 121 -60 126 -60 6 0 50 -15 97 -34 47 -19 109 -37 136 -41 59 -8 172 -36 241 -60 27 -9 72 -21 99 -26 255 -48 1003 -65 1044 -23 8 8 2 193 -9 289 -5 44 -14 132 -20 196 -13 155 -42 289 -79 371 -17 37 -31 80 -31 96 0 37 -40 155 -85 247 -19 40 -35 79 -35 86 0 6 -26 60 -59 118 -32 59 -62 121 -65 139 -4 17 -15 41 -25 54 -10 13 -30 46 -44 75 -15 28 -31 54 -37 58 -5 3 -10 14 -10 24 0 11 -16 42 -35 70 -20 28 -58 90 -86 137 -28 47 -60 95 -71 106 -11 11 -27 32 -34 46 -14 27 -65 95 -187 250 -181 228 -431 479 -667 668 -47 37 -89 74 -93 81 -4 7 -14 13 -20 13 -7 0 -46 27 -87 60 -41 33 -80 60 -86 60 -5 0 -19 8 -30 18 -30 28 -106 78 -170 113 -33 18 -66 38 -74 45 -9 7 -60 34 -115 59 -55 25 -121 57 -146 70 -26 14 -78 37 -115 51 -38 14 -80 32 -94 40 -57 32 -118 52 -128 42z"/>
 <path d="M10920 5754 c-143 -21 -264 -48 -395 -88 -27 -9 -58 -16 -68 -16 -16 0 -159 -52 -232 -84 -16 -8 -59 -24 -95 -36 -57 -20 -171 -71 -310 -139 -82 -40 -277 -155 -309 -183 -18 -16 -38 -28 -44 -28 -7 0 -23 -10 -37 -22 -14 -13 -59 -50 -100 -83 -144 -114 -320 -292 -430 -435 -19 -24 -45 -55 -57 -69 -13 -13 -23 -28 -23 -34 0 -6 -18 -33 -40 -62 -22 -28 -50 -71 -64 -96 -50 -93 -81 -144 -92 -156 -6 -6 -17 -26 -24 -45 -7 -18 -33 -76 -58 -128 -72 -151 -170 -439 -200 -590 -6 -30 -23 -105 -36 -167 -35 -156 -66 -371 -66 -461 0 -43 -7 -158 -14 -257 -8 -99 -13 -181 -11 -183 18 -19 679 151 730 188 6 4 27 10 49 13 42 7 243 102 468 222 77 41 244 154 302 204 26 22 51 41 55 41 5 0 36 24 69 53 33 28 95 81 138 117 148 124 564 550 564 577 0 4 20 32 44 61 24 30 66 99 94 155 29 56 60 118 71 137 26 48 128 260 195 406 52 112 106 267 106 303 0 8 9 33 20 55 31 66 60 157 60 192 0 18 7 61 15 96 40 176 82 491 70 529 -6 18 -17 19 -163 18 -86 -1 -168 -3 -182 -5z"/>
 </g>
<g id="layer102" fill="#8ec640" stroke="none">
 <path d="M7540 12669 c-201 -28 -581 -72 -680 -79 -227 -18 -485 -60 -575 -95 -42 -17 -88 -25 -155 -28 -82 -4 -107 -10 -180 -42 -108 -47 -196 -75 -237 -75 -18 0 -106 -24 -195 -53 -90 -29 -190 -61 -223 -71 -33 -10 -107 -38 -165 -61 -58 -24 -116 -46 -131 -49 -14 -3 -62 -30 -108 -61 -45 -30 -93 -55 -107 -55 -14 0 -78 -27 -143 -60 -65 -33 -124 -60 -130 -60 -12 0 -190 -96 -206 -111 -5 -5 -16 -9 -25 -9 -8 0 -46 -21 -85 -45 -38 -25 -84 -51 -100 -59 -17 -8 -53 -30 -80 -48 -28 -19 -88 -54 -134 -78 -46 -24 -97 -54 -112 -68 -16 -13 -46 -33 -67 -45 -58 -33 -264 -182 -292 -211 -13 -15 -28 -26 -34 -26 -6 0 -40 -25 -74 -55 -35 -31 -77 -62 -93 -70 -16 -9 -29 -19 -29 -24 0 -5 -26 -28 -57 -52 -32 -24 -60 -46 -63 -49 -3 -3 -36 -32 -75 -65 -303 -259 -668 -629 -883 -894 -29 -36 -61 -73 -70 -81 -9 -8 -29 -33 -44 -55 -14 -22 -45 -60 -67 -84 -23 -24 -41 -49 -41 -56 0 -7 -10 -23 -23 -36 -30 -32 -87 -105 -87 -113 0 -6 -85 -120 -107 -144 -7 -7 -13 -19 -13 -25 0 -7 -27 -48 -60 -92 -33 -44 -60 -84 -60 -88 0 -4 -27 -49 -60 -99 -33 -51 -60 -98 -60 -104 0 -7 -11 -25 -24 -41 -13 -15 -45 -71 -73 -123 -27 -52 -61 -113 -74 -135 -14 -22 -69 -130 -123 -240 -54 -110 -115 -234 -136 -275 -20 -41 -39 -86 -42 -100 -3 -14 -31 -82 -62 -152 -31 -70 -56 -132 -56 -139 0 -7 -23 -74 -50 -149 -28 -75 -54 -157 -59 -181 -5 -24 -29 -114 -53 -199 -25 -85 -50 -177 -56 -205 -42 -196 -79 -352 -100 -420 -13 -44 -30 -132 -37 -195 -7 -63 -20 -176 -29 -250 -22 -187 -53 -533 -66 -730 -6 -91 -12 -183 -14 -206 l-3 -41 261 -6 c144 -4 646 -10 1116 -13 l856 -7 52 159 c63 194 68 217 77 324 9 115 20 164 64 278 22 54 41 125 45 162 9 85 30 156 73 249 39 86 93 247 93 280 0 12 16 38 35 58 25 25 35 45 35 67 0 36 27 111 71 199 17 33 37 77 44 96 7 20 52 110 100 201 48 91 106 199 127 240 48 91 79 143 89 150 5 3 16 23 26 45 19 42 154 249 210 323 18 24 33 49 33 56 0 7 10 24 23 37 13 13 49 61 80 105 31 45 71 97 89 115 17 19 41 53 52 76 20 39 69 102 141 178 231 244 323 341 340 354 11 9 71 67 133 129 63 61 117 112 121 112 3 0 29 22 56 49 91 91 191 181 201 181 5 0 38 27 74 60 36 33 70 60 77 60 6 0 18 9 25 19 8 11 63 56 124 99 60 44 118 89 128 101 11 11 25 21 32 21 7 0 33 15 57 34 52 39 238 164 276 185 14 8 40 21 56 29 17 9 32 18 35 22 7 8 110 68 180 105 30 15 66 36 80 46 14 9 65 36 115 58 49 23 92 46 95 50 3 5 43 25 90 44 47 20 126 56 177 81 50 25 96 46 101 46 6 0 46 15 89 34 83 35 544 191 648 219 33 8 121 34 195 56 178 52 419 108 500 115 36 3 112 15 170 25 294 55 474 70 915 78 622 10 939 -22 1672 -172 33 -7 135 -36 225 -64 89 -29 249 -80 353 -113 185 -59 274 -92 403 -150 34 -15 69 -28 76 -28 27 0 335 -136 414 -183 31 -19 82 -46 112 -62 30 -15 74 -41 97 -56 23 -16 61 -38 85 -49 24 -11 70 -38 103 -60 33 -22 76 -47 95 -56 19 -9 72 -40 116 -70 45 -30 84 -54 88 -54 7 0 44 -25 166 -111 25 -18 49 -37 55 -44 5 -7 58 -45 118 -85 59 -39 110 -77 115 -84 4 -6 22 -21 40 -32 18 -11 54 -39 80 -62 26 -23 81 -71 122 -107 41 -36 86 -75 99 -87 14 -13 45 -40 70 -61 25 -21 64 -54 86 -75 22 -20 54 -48 70 -62 17 -14 57 -48 90 -76 78 -67 145 -102 145 -75 0 5 -16 38 -36 73 -20 34 -50 88 -66 118 -17 30 -38 64 -47 75 -10 11 -41 58 -69 105 -28 47 -64 103 -81 124 -17 21 -31 44 -31 51 0 6 -15 29 -33 51 -18 21 -54 68 -79 104 -26 36 -57 75 -69 85 -12 11 -49 54 -82 95 -34 41 -67 79 -74 83 -7 4 -13 13 -13 19 0 13 -59 89 -82 106 -10 7 -25 27 -34 44 -9 17 -30 45 -47 63 -18 18 -64 68 -103 111 -81 90 -205 219 -237 249 -12 11 -66 63 -122 116 -55 53 -136 129 -180 169 -44 39 -98 88 -120 108 -21 21 -57 51 -80 67 -22 17 -60 50 -85 73 -25 23 -48 42 -52 42 -3 0 -30 20 -60 45 -29 25 -82 66 -118 90 -36 25 -81 58 -100 75 -19 16 -40 30 -46 30 -6 0 -28 15 -50 33 -55 45 -111 87 -119 87 -4 0 -39 26 -79 59 -39 32 -93 66 -120 75 -27 9 -61 25 -75 35 -14 10 -51 31 -81 47 -30 15 -80 45 -110 65 -31 20 -78 48 -105 61 -28 13 -81 42 -120 65 -110 64 -355 183 -376 183 -33 0 -92 29 -125 61 -40 39 -324 155 -424 174 -19 3 -104 29 -189 56 -84 28 -183 59 -220 68 -36 10 -136 39 -221 64 -85 25 -173 47 -195 50 -22 2 -101 18 -175 35 -184 43 -352 70 -495 82 -66 5 -174 16 -240 24 -448 55 -946 79 -1125 55z"/>
 <path d="M12582 6318 c-5 -5 -41 -18 -80 -28 -39 -10 -80 -24 -91 -29 -11 -6 -29 -11 -41 -11 -24 0 -80 -27 -80 -38 0 -10 108 -78 145 -92 16 -6 32 -15 35 -19 3 -4 50 -39 105 -78 55 -39 111 -82 125 -95 13 -12 42 -36 65 -53 47 -35 67 -54 245 -229 74 -73 151 -153 171 -177 20 -24 55 -64 78 -88 23 -24 41 -50 41 -56 0 -7 7 -18 16 -25 8 -8 21 -28 29 -46 11 -28 126 -179 148 -195 5 -3 32 -53 62 -110 48 -94 63 -124 113 -224 8 -16 34 -67 58 -113 24 -46 44 -89 44 -96 0 -8 12 -40 26 -72 38 -86 75 -202 84 -264 4 -30 18 -107 30 -170 29 -155 31 -266 6 -305 -41 -62 -34 -60 -235 -58 -209 2 -313 18 -496 76 -60 19 -137 42 -170 52 -33 9 -64 21 -70 25 -5 4 -28 13 -50 20 -22 7 -64 23 -93 36 -29 13 -58 24 -65 24 -18 0 -109 44 -178 86 -31 19 -62 34 -68 34 -6 0 -53 27 -103 60 -51 33 -97 60 -103 60 -6 0 -20 8 -31 18 -10 10 -61 47 -113 83 -52 35 -106 75 -121 89 -15 14 -46 38 -69 54 -23 16 -56 47 -72 68 -17 21 -36 38 -42 38 -7 0 -32 16 -56 35 -24 19 -50 35 -57 35 -24 0 -16 -56 16 -110 17 -28 30 -54 30 -58 0 -4 25 -40 55 -80 30 -40 55 -77 55 -81 0 -4 24 -34 53 -67 29 -32 65 -78 81 -101 16 -24 32 -43 36 -43 4 0 26 -24 49 -54 23 -30 63 -76 89 -103 192 -201 294 -300 334 -323 14 -8 47 -33 72 -54 25 -21 60 -48 79 -60 66 -41 252 -165 272 -182 11 -9 40 -25 65 -37 25 -11 47 -23 50 -27 6 -8 92 -59 178 -106 31 -17 89 -49 129 -72 40 -23 77 -42 82 -42 6 0 63 -27 127 -60 64 -33 121 -60 126 -60 6 0 50 -15 97 -34 47 -19 109 -37 136 -41 59 -8 172 -36 241 -60 27 -9 72 -21 99 -26 255 -48 1003 -65 1044 -23 8 8 2 193 -9 289 -5 44 -14 132 -20 196 -13 155 -42 289 -79 371 -17 37 -31 80 -31 96 0 37 -40 155 -85 247 -19 40 -35 79 -35 86 0 6 -26 60 -59 118 -32 59 -62 121 -65 139 -4 17 -15 41 -25 54 -10 13 -30 46 -44 75 -15 28 -31 54 -37 58 -5 3 -10 14 -10 24 0 11 -16 42 -35 70 -20 28 -58 90 -86 137 -28 47 -60 95 -71 106 -11 11 -27 32 -34 46 -14 27 -65 95 -187 250 -181 228 -431 479 -667 668 -47 37 -89 74 -93 81 -4 7 -14 13 -20 13 -7 0 -46 27 -87 60 -41 33 -80 60 -86 60 -5 0 -19 8 -30 18 -30 28 -106 78 -170 113 -33 18 -66 38 -74 45 -9 7 -60 34 -115 59 -55 25 -121 57 -146 70 -26 14 -78 37 -115 51 -38 14 -80 32 -94 40 -57 32 -118 52 -128 42z"/>
 <path d="M10920 5754 c-143 -21 -264 -48 -395 -88 -27 -9 -58 -16 -68 -16 -16 0 -159 -52 -232 -84 -16 -8 -59 -24 -95 -36 -57 -20 -171 -71 -310 -139 -82 -40 -277 -155 -309 -183 -18 -16 -38 -28 -44 -28 -7 0 -23 -10 -37 -22 -14 -13 -59 -50 -100 -83 -144 -114 -320 -292 -430 -435 -19 -24 -45 -55 -57 -69 -13 -13 -23 -28 -23 -34 0 -6 -18 -33 -40 -62 -22 -28 -50 -71 -64 -96 -50 -93 -81 -144 -92 -156 -6 -6 -17 -26 -24 -45 -7 -18 -33 -76 -58 -128 -72 -151 -170 -439 -200 -590 -6 -30 -23 -105 -36 -167 -35 -156 -66 -371 -66 -461 0 -43 -7 -158 -14 -257 -8 -99 -13 -181 -11 -183 18 -19 679 151 730 188 6 4 27 10 49 13 42 7 243 102 468 222 72 39 248 156 296 198 20 18 51 41 67 52 67 41 408 349 540 487 131 138 225 244 225 255 0 4 20 32 44 61 24 30 66 99 94 155 29 56 60 118 71 137 26 48 128 260 195 406 52 111 106 267 106 302 0 8 11 39 25 68 30 63 44 121 84 344 46 252 67 432 55 463 -5 15 -23 17 -163 16 -86 -1 -167 -3 -181 -5z"/>
 </g>

</svg>